<svg width="24" height="24" viewBox="0 0 24 24" fill="none" xmlns="http://www.w3.org/2000/svg">
<path fill-rule="evenodd" clip-rule="evenodd" d="M18.7391 18.721C18.3088 19.1512 17.618 19.158 17.1823 18.7223L12.384 13.9239C12.1719 13.7119 11.8264 13.7137 11.6161 13.9239L6.81777 18.7223C6.38824 19.1518 5.69826 19.1582 5.26101 18.721L5.27906 18.739C4.84882 18.3088 4.84207 17.618 5.27777 17.1823L10.0761 12.3839C10.2881 12.1719 10.2864 11.8263 10.0761 11.6161L5.27777 6.81774C4.84824 6.38821 4.84181 5.69823 5.27906 5.26098L5.26101 5.27903C5.69126 4.84879 6.38207 4.84204 6.81777 5.27774L11.6161 10.0761C11.8281 10.2881 12.1737 10.2863 12.384 10.0761L17.1823 5.27774C17.6118 4.84821 18.3018 4.84178 18.7391 5.27903L18.721 5.26098C19.1513 5.69122 19.158 6.38204 18.7223 6.81774L13.924 11.6161C13.7119 11.8281 13.7137 12.1737 13.924 12.3839L18.7223 17.1823C19.1518 17.6118 19.1583 18.3018 18.721 18.739L18.7391 18.721Z" fill="#2D2C2E"/>
</svg>
