<svg width="24" height="24" viewBox="0 0 24 24" fill="none" xmlns="http://www.w3.org/2000/svg">
<rect width="24" height="24" fill="#F2F2F2"/>
<g id="Frame 834">
<rect width="5722" height="1665" transform="translate(-1696 -453)" fill="white"/>
<g id="informative">
<rect x="-416" y="-256" width="944" height="784" rx="20" fill="white"/>
<g id="grocery">
<g id="&#240;&#159;&#142;&#168; Color">
<path d="M5.01111 1.04575C3.24191 1.51981 2.80773 5.66071 4.01106 10.359C4.04388 10.371 4.07661 10.3842 4.10921 10.3987L4.84386 10.7252C5.10243 10.8401 5.39757 10.8401 5.65614 10.7252L6.28158 10.4472C7.05728 10.1025 7.94272 10.1025 8.71842 10.4472L9.34386 10.7252C9.60243 10.8401 9.89757 10.8401 10.1561 10.7252L10.7816 10.4472C10.8395 10.4215 10.898 10.3977 10.957 10.3758C10.897 10.0752 10.83 9.77103 10.756 9.46413C10.7258 9.44194 10.697 9.4172 10.6697 9.38993C9.90878 8.62901 8.85213 8.4624 7.21265 8.48998C6.79849 8.49695 6.4571 8.16686 6.45014 7.7527C6.44317 7.33855 6.77326 6.99716 7.18742 6.9902C8.20653 6.97305 9.22066 7.01473 10.1386 7.33688C9.97487 6.85742 9.79964 6.3962 9.61527 5.95649C8.85853 5.24075 7.81339 5.08256 6.21265 5.10949C5.79849 5.11646 5.4571 4.78637 5.45014 4.37221C5.44317 3.95806 5.77326 3.61667 6.18742 3.6097C6.98553 3.59628 7.78059 3.61893 8.52879 3.78412C7.37351 1.85666 6.07082 0.761805 5.01111 1.04575Z" fill="#2D2C2E"/>
<path d="M19 7.99998C19.566 8.84895 19.8317 9.74798 19.9387 10.3784C19.9227 10.3848 19.9067 10.3916 19.8908 10.3987L19.1561 10.7252C18.8976 10.8401 18.6024 10.8401 18.3439 10.7252L17.7184 10.4472C16.9427 10.1025 16.0573 10.1025 15.2816 10.4472L14.6561 10.7252C14.3976 10.8401 14.1024 10.8401 13.8439 10.7252L13.2184 10.4472C12.8606 10.2882 12.4795 10.2025 12.0966 10.1902C12.222 9.57631 12.4882 8.76768 13 7.99998C13.4581 7.31277 13.7195 6.8114 13.8592 6.47709C13.9657 6.22231 14.2239 5.99998 14.5 5.99998H17.5C17.7761 5.99998 18.0343 6.22231 18.1408 6.47709C18.2805 6.8114 18.5419 7.31277 19 7.99998Z" fill="#2D2C2E"/>
<path d="M14 2.49998C14 2.22384 14.2239 1.99998 14.5 1.99998H17.5C17.7761 1.99998 18 2.22384 18 2.49998V4.49998C18 4.77612 17.7761 4.99998 17.5 4.99998H14.5C14.2239 4.99998 14 4.77612 14 4.49998V2.49998Z" fill="#2D2C2E"/>
<path fill-rule="evenodd" clip-rule="evenodd" d="M3 11.7694C3 11.4076 3.37243 11.1655 3.70307 11.3125L4.43772 11.639C4.95485 11.8688 5.54515 11.8688 6.06228 11.639L6.68772 11.361C7.20485 11.1312 7.79515 11.1312 8.31228 11.361L8.93772 11.639C9.45485 11.8688 10.0451 11.8688 10.5623 11.639L11.1877 11.361C11.7049 11.1312 12.2951 11.1312 12.8123 11.361L13.4377 11.639C13.9549 11.8688 14.5451 11.8688 15.0623 11.639L15.6877 11.361C16.2049 11.1312 16.7951 11.1312 17.3123 11.361L17.9377 11.639C18.4549 11.8688 19.0451 11.8688 19.5623 11.639L20.2969 11.3125C20.6276 11.1655 21 11.4076 21 11.7694V21C21 22.1046 20.1046 23 19 23H5C3.89543 23 3 22.1046 3 21V11.7694ZM16.35 14.25V15.375C16.35 17.6981 14.3561 19.5 12 19.5C9.64387 19.5 7.64998 17.6981 7.64998 15.375V14.25C7.64998 13.8358 7.98576 13.5 8.39998 13.5C8.81419 13.5 9.14998 13.8358 9.14998 14.25V15.375C9.14998 16.7799 10.3796 18 12 18C13.6203 18 14.85 16.7799 14.85 15.375V14.25C14.85 13.8358 15.1858 13.5 15.6 13.5C16.0142 13.5 16.35 13.8358 16.35 14.25Z" fill="#2D2C2E"/>
</g>
</g>
</g>
</g>
</svg>
