<svg width="24" height="24" viewBox="0 0 24 24" fill="none" xmlns="http://www.w3.org/2000/svg">
<path fill-rule="evenodd" clip-rule="evenodd" d="M13.1579 2.11566C13.1579 1.44244 13.7547 0.912685 14.4179 1.01201C18.606 1.61409 21.7553 4.85102 21.9864 9.00667C22.0015 9.27773 21.7779 9.5 21.5065 9.5H14.1579C13.6056 9.5 13.1579 9.05229 13.1579 8.5V2.11566ZM20.1432 16.2534C21.2609 14.822 21.9042 13.206 21.9901 11.4175C22.0011 11.1879 21.8122 11 21.5823 11H6L5.15579 9.27836C4.97445 8.89377 4.58675 8.64859 4.16105 8.64928H2.10526C1.49737 8.64928 1 9.14592 1 9.75293C1 10.3599 1.49737 10.8566 2.10526 10.8566H3.45368C3.45368 10.8566 5.54263 15.3484 5.79684 15.7347C4.23432 16.5735 3.44203 18.3649 3.87368 20.0831C4.20526 21.4737 5.35474 22.5884 6.74737 22.8974C9.06842 23.4051 11.1463 21.8379 11.4447 19.6858H13.7437C13.896 20.7499 14.4858 21.7024 15.3711 22.3141C16.2563 22.9257 17.3569 23.1411 18.4079 22.9084C19.8254 22.5973 20.9484 21.5186 21.3147 20.1162C21.7016 18.5821 21.16 17.1584 20.1432 16.2534ZM7.63158 20.7894C6.71421 20.7894 5.97368 20.05 5.97368 19.134C5.97368 18.2179 6.71421 17.4785 7.63158 17.4785C8.54895 17.4785 9.28947 18.2179 9.28947 19.134C9.28947 20.05 8.54895 20.7894 7.63158 20.7894ZM17.5789 20.7894C16.6616 20.7894 15.9211 20.05 15.9211 19.134C15.9211 18.2179 16.6616 17.4785 17.5789 17.4785C18.4963 17.4785 19.2368 18.2179 19.2368 19.134C19.2368 20.05 18.4963 20.7894 17.5789 20.7894Z" fill="#2D2C2E"/>
</svg>
